<svg xmlns="http://www.w3.org/2000/svg" width="135" height="185"><rect width="100%" height="100%" fill="none"/><g class="currentLayer"><path d="M16.3 125.2l3.9-3.9c1.5-1.5 3-2.9 4.6-4.3 1.5-1.4 3.1-2.6 4.8-3.8 1.4-1 3-1.7 4.7-2.1 1.4-.3 3-.2 4.3.4 1.6.9 2.8 2.3 3.6 4 1 1.9 1.6 4.1 1.8 6.3.2 2.2.2 4.3 0 6.5-.2 2.5-.6 5-1.1 7.5-.5 2.5-1.1 5-1.8 7.5-.9 2.9-1.8 5.7-2.8 8.4-1 2.7-2 5.4-3.2 8.1-1.2 2.6-2.4 5.3-3.7 7.8-1.3 2.5-2.7 5-4.2 7.5-.7 1.2-1.5 2.5-2.3 3.7-.8 1.2-1.8 2.3-2.9 3.3-.5.5-1.1.9-1.7 1.4-.6.4-1.2.7-1.9.9-.6.2-1.3.2-2 0-.6-.2-1.1-.5-1.6-.9s-.9-.9-1.2-1.5l-.9-1.8c-.7-1.9-1.1-3.9-1.2-5.9-.1-2.1-.1-4.1-.2-6.1v-.9l.1-1.2c0-.4.1-.8.1-1 .1-.3.1-.4.2-.5.1 0 .2.1.2.3 0 .1 0 .2.1.4.2.9.3 1.8.4 2.7.1.9.3 1.9.4 2.9 0 .3.1.7.2 1.4s.2 1.4.4 2.3c.2.8.4 1.7.6 2.6.2.8.5 1.6.8 2.4.3.6.6 1.2 1.1 1.7.3.4.8.6 1.3.4.7-.1 1.3-.5 1.7-1 .5-.5 1-1 1.4-1.6 1.2-1.5 2.3-3.1 3.2-4.7 1.1-1.9 2.1-3.9 3.1-6s2-4.2 2.9-6.4c.9-2.2 1.7-4.2 2.5-6 1.1-2.8 2.1-5.6 3-8.4s1.7-5.6 2.5-8.5c.5-2.3 1-4.7 1.4-7.1.4-2.4.6-4.8.6-7.2.2-.6.2-1.4.2-2.5s-.1-2.2-.3-3.3c-.2-1.1-.5-2.2-.8-3.3-.4-1-1-1.8-1.8-2.4-.9-.5-2-.6-2.9 0-1.5.7-2.8 1.6-4 2.6-1.7 1.4-3.3 2.9-4.8 4.5-1.7 1.8-3.4 3.6-5.2 5.5l-5.2 5.7c-1.7 1.9-3.3 3.5-4.8 5-1.3 1.3-2.6 2.4-4.1 3.4-.9.7-2.1 1.1-3.2.9-1.2-.2-2-1.5-2.4-3.6-.4-2.2-.2-5.3.6-9.3 1.3-5.7 3.3-11.2 6.2-16.3.7-1.2 1.5-2.4 2.3-3.5.8-1.2 1.8-2.2 2.8-3.2l1.3-1.1c.4-.4.9-.7 1.4-1 .5-.3 1-.5 1.6-.6.6-.1 1.1-.1 1.7.1.7.2 1.3.8 1.6 1.5.3.7.4 1.5.4 2.3 0 .9-.2 1.7-.4 2.6-.2.9-.4 1.6-.6 2.1-.1.3-.2.6-.4.9-.1.2-.2.4-.4.6 0-.2.1-.8.1-1.8.1-1 .1-2 0-3 0-.9-.2-1.8-.6-2.6-.3-.7-.9-.8-1.7-.4-.6.3-1.2.7-1.7 1.2s-.9 1-1.3 1.5c-.5.6-.9 1.1-1.3 1.7-.4.6-.8 1.2-1.1 1.8-1.5 2.5-2.7 5.2-3.6 7.9-.9 2.8-1.7 5.6-2.4 8.4-.3 1.5-.6 3-.8 4.6-.2 1.6-.2 3.2 0 4.7 1.1-.6 2.1-1.3 3-2.1 1.1-.9 2.2-2 3.4-3.1l3.3-3.3 2.7-2.7z"/><path d="M68.5 61c1-1.2 1.6-1.7 1.7-1.7-.4.7-.8 1.4-1.2 2-.4.6-.9 1.4-1.5 2.2l-2.1 3-6.1 8.4c-2 2.7-4.1 5.6-6.3 8.6-1.1 1.5-2.2 2.9-3.2 4.3-1.1 1.4-2.1 2.8-3.1 4.1.4 2.1.8 4 1.1 5.6l.6 3.2 1.2 7.5 1.1 7.5c.3 2.1.6 4.2.9 6.2.3 2 .6 4.1 1 6.2l.9-5.1c.4-1.7.7-3.4 1.1-5.1.1-.4.2-.7.3-1.1l.4-1c.1-.4.2-.5.3-.5.1.1.1.4.1 1.1s-.1 1.3-.2 2.1-.2 1.5-.3 2.2c-.1.7-.2 1.2-.2 1.4l-.4 4c-.1 1.3-.3 2.7-.3 4.1-.1.5-.1 1-.1 1.5l-.1 1.6c0 .4-.1.8-.2 1.2-.1.4-.4.8-.8.9-.4.2-.9.3-1.4.1-.4-.2-.7-.5-.9-.9-.3-.4-.5-.9-.6-1.4l-.5-1.2c-.2-.8-.4-1.5-.5-2.2-.1-.7-.3-1.4-.4-2.2-.5-2.7-1-5.4-1.4-8-.4-2.6-.9-5.3-1.3-8-.1-.7-.3-1.7-.4-2.9s-.4-2.6-.6-4c-.2-1.4-.4-2.9-.6-4.5l-.8-4.5c-.6.7-1.2 1.5-1.9 2.3-.7.8-1.4 1.7-2.1 2.5l-2.1 2.4c-.7.7-1.3 1.4-1.8 1.9-1.1 1.1-1.8 1.6-2 1.4-.1-.1-.1-.3.1-.7.2-.5.5-1.1.8-1.6 1.1-2 2.5-4 3.9-5.9 1.6-2 3-4 4.5-6.1-.1-1.2-.3-2.1-.4-2.9-.1-.8-.1-1.3-.2-1.4-.3-2.5-.6-5-.8-7.5-.3-2.5-.4-5-.4-7.5v-.4c0-.2 0-.4.1-.7.1-.2.1-.3.2-.4.1 0 .2.1.3.3.4 1.2.8 2.3 1.1 3.5.3 1.2.6 2.4.9 3.7.3 1.3.6 2.7.9 4.3.3 1.5.7 3.3 1 5.2.8-1 1.6-2.1 2.5-3.1l2.6-3.2c2.4-2.9 4.6-5.6 6.8-8.2s4.3-5.2 6.6-8l2.4-2.8c.7-.6 1.2-1.3 1.8-1.8z"/><path d="M69.5 101.7c.1.1.1.2.1.3 0 .7 0 1.4-.1 2.1l-.3 2.1c-.4 2.2-.7 4.7-.9 7.5-.1.8-.2 1.6-.2 2.4 0 .8 0 1.6-.1 2.4l-.1.9c-.1.4-.1.7-.1.8 0 .5-.3.9-.7 1.1-.4.3-.9.4-1.3.4-.5 0-.9-.3-1.2-.7-.3-.4-.5-.8-.7-1.3-.4-1-.7-2-1-3-.3-1-.5-2-.7-3.1-.1.8-.1 1.6-.1 2.3 0 .8-.1 1.5-.2 2.2-.1 1.2-.1 2.3-.3 3.5-.1 1.1-.3 2.3-.4 3.5 0 .3-.1.7-.1 1.1-.1.4-.2.8-.3 1.1-.1.3-.3.6-.6.9-.3.3-.6.4-1 .5-.5.1-1-.1-1.4-.4-.4-.3-.7-.8-.9-1.2-.7-1.4-1.3-2.8-1.6-4.3-.3-1.5-.6-3.1-.7-4.6-.1-1.3-.2-2.6-.1-3.9 0-1.1.1-1.8.1-2.1 0-1.1.1-2.2.3-3.3.2-1.2.5-2.4.8-3.6.4-1.2.8-2.3 1.4-3.4.5-1 1.2-2 2-2.8.4-.4.9-.8 1.5-1.1.5-.3 1.1-.5 1.7-.4.1 0 .2 0 .3.1.2 0 .2.1.1.1-.9.5-1.7 1.2-2.3 2.1-.6.9-1 1.8-1.4 2.8-.3 1-.6 2.1-.7 3.2-.2 1.1-.3 2.2-.4 3.2-.1.9-.1 2-.1 3.2 0 1.2.1 2.5.2 3.7.2 1.3.4 2.6.7 3.9.3 1.3.6 2.6 1.1 3.9.4-1.9.7-3.9 1.1-6.1.3-2.2.6-4.3.9-6.4.1-1 .2-2.1.4-3.3.2-1.1.3-2.3.5-3.4l.2-1.2c.1-.5.1-.9.2-1.4l.2-1.2c0-.2.1-.5.2-.7.1-.3.4-.4.7-.4.3 0 .5.2.7.4.1.1.1.3.1.5l.1.8.1.9c0 .2 0 .4.1.5.1 1 .2 2.1.3 3.3l.4 3.6c.1 1.2.2 2.2.3 3l.2 1.6.3-1.7c.2-.7.3-1.3.3-1.7.3-1.3.5-2.7.9-4s.7-2.6 1.1-4c0-.2.1-.5.2-.7 0-.4.1-.5.2-.5z"/><path d="M79.7 91.1c.1 0 .1.3.1.8l-.1 1.7c0 .6-.1 1.3-.2 1.9-.1.6-.1 1-.1 1.3l-.3 2.4c-.1.8-.1 1.6-.2 2.4-.1 1.2-.2 2.5-.3 3.6-.1 1.2-.1 2.4-.1 3.6v1.1c0 .4 0 .7-.1 1.1-.1.6-.6 1.1-1.2 1.3-.6.3-1.3.2-1.7-.3-.5-.4-.9-1-1.1-1.6-.2-.7-.4-1.3-.5-1.9-.4-1.7-.8-3.4-1.1-5.2s-.7-3.4-1.1-5.1c-.1-.3-.3-.6-.6-.7-.3-.2-.6-.4-.9-.5-.1 1.8-.3 3.7-.6 5.8-.3 2.1-.6 4-1 5.7-.3 1.5-.6 2.9-1 4.3-.4 1.1-.6 1.7-.7 1.7-.1 0-.1-.5 0-1.3l.3-3.2.5-4.2c.2-1.5.3-3 .4-4.4.1-1.4.1-2.7 0-3.8 0-.8-.2-1.7-.6-2.4-.6-.5-1.1-1-1.6-1.6-.5-.6-.9-1.4-.9-2.2 0-.7.2-1.3.7-1.8.5-.5 1.2-.6 1.8-.3.7.2 1.2.8 1.5 1.4.3.7.5 1.3.7 2 .1.2.2.4.2.6.1.2.2.4.3.5.4.3.9.6 1.4.8.5.2 1.1.4 1.7.6.7.3 1.3.8 1.8 1.4.4.7.7 1.4.8 2.2.1.8.3 1.7.4 2.5s.3 1.7.4 2.5c.2-1.1.4-2.1.6-3.2.2-1.1.4-2.1.6-3.2l.2-1.2c.1-.7.3-1.4.5-2.1l.5-2c.3-.8.5-1.1.6-1zM86 27c.1 0 .2.1.4.4.2.3.3.7.4 1 .1.4.2.7.3 1.1.1.3.2.6.2.7.6 2.2 1.1 4.4 1.6 6.6s.9 4.5 1.4 6.9c.5 2.7 1 5.3 1.4 7.9l1.4 7.9c.4 2.3.8 4.7 1.1 7.2.3 2.5.7 4.9 1.1 7.2.1 0 .1 0 .2.1.1 0 .1.1.2.1.1-1.2.3-2.7.6-4.3.3-1.7.5-3.3.8-5 .3-1.7.6-3.2 1-4.7.3-1.2.6-2.3 1.1-3.4 0-.1.1-.3.2-.4.1-.1.2 0 .3.2.1.2.1.5.1.8v.8c0 1.2-.1 2.6-.2 4s-.3 2.9-.6 4.3c-.2 1.4-.5 2.8-.9 4.3-.3 1.3-.7 2.7-1.2 3.9v.2c1.9 1 3.8 2.1 5.7 3.1 2 1.1 3.9 2.2 5.8 3.3.2.1.4.2.6.4.2.2.2.4-.1.6-.2.2-.5.3-.7.3-.3.1-.5.1-.8.1-.6.1-1.2 0-1.8-.1-.6-.1-1.2-.3-1.8-.4-1.4-.4-2.7-.9-4.1-1.5-1.3-.6-2.6-1.3-3.9-2 .3 1.7.5 3.4.8 5.1.3 1.7.5 3.4.6 5.1.1.4.1.9.1 1.3s-.1.8-.4 1c-.3.4-.8.5-1.3.4-.4-.1-.8-.5-.9-.9-.6-2-1.1-4-1.4-6l-.9-4.5c-.3-1.6-.6-3.1-.8-4.6l-.7-.7c-.3-.3-.5-.5-.6-.8-.1-.2-.2-.4-.4-.7-.1-.2-.2-.5-.1-.7.2-.2.4-.3.6-.2.2 0 .5.1.7.1-.5-2.6-.9-5.2-1.3-7.8-.4-2.6-.8-5.2-1.2-7.9-.4-2.7-.8-5.3-1.1-8-.4-2.6-.7-5.3-1-8-.2-1.8-.4-3.7-.5-5.6-.2-1.9-.3-3.8-.3-5.7v-1.4c0-.3 0-.5.1-.8.1-.2.1-.3.2-.3z"/><path d="M110.8 59.6c0-.2.1-.5.2-.7.1-.4.2-.5.3-.5l.1.1v.3c-.1 2-.3 4-.5 5.9-.2 1.9-.4 3.9-.6 5.9-.1.9-.1 1.9-.1 3.2l-.1 3.2c0 .3-.1.7-.1 1-.1.4-.2.7-.3 1.1-.1.3-.3.6-.6.8-.3.2-.7.4-1.1.4-.5 0-.9-.3-1.2-.7-.3-.4-.6-.9-.7-1.4-.5-1.2-.8-2.4-1.1-3.7-.3-1.5-.5-3.1-.7-4.8-.2-1.7-.3-3.4-.4-5.1-.1-1.7-.1-3.3-.1-4.7 0-1.4 0-2.6.1-3.6 0-.6.1-1.2.3-1.8.1-.2.2-.4.4-.5h.3c.1 0 .2.1.3.3.3 1 .6 2.2.9 3.5s.6 2.7.8 4.1l.8 4.5c.3 1.6.6 3.1 1 4.7.1-.5.2-1 .3-1.7l.3-1.7.8-4c0-1.4.3-2.7.7-4.1zm-8-17.5c.3.1.6.4.7.7.2.3.3.7.4 1 .1.4.1.7 0 1.1 0 .3-.1.7-.2 1-.1.3-.2.6-.4.8-.2.3-.4.5-.7.7-.2.2-.5.4-.8.5-.3.1-.6.1-.9 0-.6-.3-1-.8-1.1-1.5-.1-.6-.1-1.3.1-1.9.1-.3.2-.6.4-.9.2-.3.4-.6.7-.9.2-.2.5-.4.8-.6.2-.1.6-.1 1 0z"/><path d="M112.4 0l.3.3.3.6c.1.2.2.4.2.7l.1.4c.8 2.4 1.4 4.9 1.9 7.3l1.5 7.5c.5 2.7 1 5.3 1.4 7.9.5 2.6.9 5.3 1.3 8 .7 4.1 1.3 8.3 2 12.4s1.2 8.3 1.6 12.5l.3-1.7c.1-.7.2-1.2.3-1.5.2-1.4.5-2.8.9-4.3s.8-2.9 1.2-4.2c0-.2.1-.5.2-.7.1-.4.2-.5.3-.5.1.4.1.9 0 1.3-.1.7-.1 1.4-.2 2.2l-.3 2.3-.2 1.5c-.2 1.4-.3 2.8-.4 4.5l-.3 4.5c-.1.7-.1 1.2-.1 1.6 0 .5-.1 1-.3 1.5-.3.8-1 1.3-1.9 1.3-.5-.1-1-.4-1.2-.8-.3-.5-.5-.9-.8-1.4-.4-1.1-.8-2.3-1-3.5-.3-1.4-.6-2.6-.8-3.6-.1 2-.3 4.2-.5 6.6-.2 2.4-.5 4.6-.8 6.7 0 .3-.1.7-.1 1.1-.1.4-.2.8-.3 1.1-.1.3-.3.7-.6.9-.3.3-.6.4-1 .5-.5.1-1.1-.1-1.5-.5-.4-.4-.7-.8-1-1.3-.8-1.7-1.5-3.4-1.8-5.2-.3-1.7-.6-3.4-.6-5.1-.1-1.5-.1-3 .1-4.6.1-1.4.2-2.5.3-3.4.1-.9.3-1.9.7-3 .3-1.1.7-2.3 1.1-3.4.5-1.1 1-2.1 1.7-3.1.6-.9 1.4-1.7 2.3-2.3-.3-2-.6-3.9-1-5.7-.3-1.8-.6-3.6-.9-5.6l-1.1-8c-.4-2.6-.7-5.3-1-8-.2-1.9-.4-3.7-.6-5.6-.2-1.9-.3-3.8-.3-5.6V1.2c0-.3 0-.5.1-.8.3-.3.3-.4.5-.4zm3.6 67.9c.3-1.8.6-3.7.9-5.7.3-2 .6-4 .8-6.2.2-2.2.3-4.3.2-6.5-.1-2.3-.4-4.7-.9-6.9-.7.6-1.2 1.4-1.6 2.2-.4.9-.8 1.9-1 2.9-.2 1-.4 2-.5 2.9-.1 1-.2 1.8-.3 2.5-.1.8 0 1.7 0 2.5.1 1.1.2 2.4.4 3.9.2 1.4.4 2.9.7 4.4.4 1.3.8 2.7 1.3 4z"/><path d="M128.2 30.3c.3.3.6.6.7 1 .1.4.2.8.2 1.2 0 .4 0 .9-.1 1.3 0 .4 0 .9.1 1.3.2.8.5 1.5.8 2.3.3.7.7 1.5 1 2.2l1.2 2.2 1.2 2.1c.7 1.3 1.2 2.7 1.5 4.1.3 1.4.2 2.9-.2 4.3-.4 1.5-1.3 2.8-2.5 3.9-.6.4-1.2.8-1.9.9-.1.1-.2.1-.4.1l-.7.2c-.2.1-.4.1-.7.1-.2 0-.3 0-.3-.1s.1-.2.5-.4c.2-.1.5-.2.7-.4.5-.3 1-.6 1.4-1.1.7-.8 1.2-1.9 1.4-3 .1-1 .1-2-.1-3s-.6-1.9-1.2-2.7c-.5-.8-1.1-1.5-1.7-2.3l-1.8-2.4c-.1 1.6-.3 3.2-.6 4.7-.3 1.8-.7 3.5-1.1 5.1-.4 1.6-.8 3-1.1 4.1-.4 1.1-.6 1.7-.8 1.7s-.1-.7.1-2.2c.2-1.4.4-3.1.7-5.2s.5-4.2.6-6.5c.1-2 0-4.1-.3-6.1-.1-.7-.3-1.3-.4-1.9s-.2-1.3-.3-2c0-.7 0-1.4.1-2 .2-.6.5-1.2.9-1.6.4-.4.9-.6 1.4-.6.7.1 1.3.3 1.7.7z"/></g></svg>