<svg data-name="Слой 1" xmlns="http://www.w3.org/2000/svg" viewBox="0 0 198.69 64.87"><path d="M42.2 20.68h5.58q3.11 0 6.3.15a44 44 0 016.06.75A14.08 14.08 0 0165 23.41a6.55 6.55 0 012.73 3.36 8.47 8.47 0 01-.27 5.34 16.76 16.76 0 01-3.15 5.7 36.59 36.59 0 01-4.59 4.56 67.46 67.46 0 01-6.1 4.53 110.1 110.1 0 01-6.6 4q-4 2.16-7.92 4t-8 3.48c-2.73 1-5.43 2-8.13 2.88s-5.46 1.66-8.25 2.34q-2.1.54-4.29 1a17.78 17.78 0 01-4.35.3 19.82 19.82 0 01-2.16-.24 5.6 5.6 0 01-2-.72 3.71 3.71 0 01-1.38-1.41 4.35 4.35 0 01-.48-1.74 5.61 5.61 0 01.21-1.89 18.47 18.47 0 01.63-1.86 19.21 19.21 0 013.3-5c1.4-1.56 2.79-3 4.2-4.44q.24-.24.69-.63l.93-.78q.48-.39.84-.63t.48-.18-.06.39a1.08 1.08 0 00-.18.33q-.78 1.14-1.62 2.25c-.57.74-1.14 1.51-1.74 2.31q-.24.3-.84 1.11t-1.32 1.89q-.72 1.08-1.44 2.28A15.13 15.13 0 003 58.22a6 6 0 00-.45 2 1.23 1.23 0 00.63 1.23 3.47 3.47 0 001.92.54 18.09 18.09 0 002.1-.12 35.46 35.46 0 005.61-1.08q3.15-.84 6.45-2t6.57-2.49q3.27-1.32 6-2.52 4.08-1.8 8-3.81t7.77-4.29q3.06-1.92 6-4A39.68 39.68 0 0059.09 37c.39-.48 1-1.1 1.71-1.86a24.36 24.36 0 002.13-2.52 15.84 15.84 0 001.71-2.91 5.32 5.32 0 00.45-3 2.9 2.9 0 00-2.07-2.1 17.56 17.56 0 00-4.71-1 60.16 60.16 0 00-6.54-.21q-3.66.06-7.53.24l-7.65.36q-3.78.18-6.9.12a32 32 0 01-5.31-.48 4.47 4.47 0 01-2.94-1.62q-1-1.5.9-4.26t7-6.18a62.52 62.52 0 0115.9-7.2q2.1-.54 4.11-.87a22.35 22.35 0 014.27-.29l1.65.15a9.25 9.25 0 011.68.33 5.19 5.19 0 011.5.72 3.57 3.57 0 011.11 1.26 2.68 2.68 0 01.12 2.19 5.35 5.35 0 01-1.35 1.92 12.9 12.9 0 01-2.07 1.56c-.76.46-1.41.83-1.92 1.11a5.78 5.78 0 01-.87.36c-.27.08-.49.14-.69.18.15-.12.61-.5 1.35-1.14a21.41 21.41 0 002.13-2.13 6.78 6.78 0 001.38-2.25q.36-1.08-.9-1.5a6 6 0 00-2-.36 17.19 17.19 0 00-2 .12q-1.08.12-2.16.3a17.81 17.81 0 00-2.1.48 39.31 39.31 0 00-8.16 3.06q-3.9 2-7.62 4.26c-1.29.84-2.56 1.74-3.84 2.7a15.46 15.46 0 00-3.3 3.36 14.71 14.71 0 003.57.66c1.46.12 3 .18 4.56.18h4.65z"/><path d="M124.52 12.1q2.34-.18 2.34 0a14.32 14.32 0 01-2.28.54c-.72.16-1.62.33-2.67.51l-3.57.63-10.23 1.65q-5 .81-10.54 1.65-2.76.42-5.36.78c-1.74.24-3.44.46-5.07.66q-1.82 2.7-3.21 4.74l-1.89 2.7q-2.23 3.12-4.48 6.15l-4.52 6.09q-1.94 2.52-3.78 5t-3.64 5.08q2.08-1.5 4.25-2.91t4.39-2.79a9.06 9.06 0 011-.54l1-.48q.54-.24.54-.12c0 .12-.24.39-.69.81s-1 .87-1.6 1.35-1.18.93-1.73 1.35-1 .71-1.14.87l-3.13 2.52q-1.56 1.26-3.12 2.64-.6.48-1.17 1l-1.17 1.08a5.89 5.89 0 01-1 .72 1.49 1.49 0 01-1.25.06 1.61 1.61 0 01-1.06-.9 2.27 2.27 0 010-1.32 6 6 0 01.56-1.41l.69-1.17c.41-.68.8-1.32 1.21-1.92s.81-1.22 1.25-1.86q2.28-3.42 4.66-6.66c1.57-2.16 3.15-4.36 4.71-6.6q.64-.9 1.77-2.4t2.4-3.24c.85-1.16 1.77-2.37 2.73-3.63l2.75-3.63q-1.38.12-3 .3c-1.07.12-2.15.22-3.23.3l-3.13.21q-1.5.09-2.64.09-2.4 0-2.4-.42-.06-.18.54-.42a16.52 16.52 0 011.69-.54 45.48 45.48 0 016.9-1.38c2.52-.32 5-.7 7.5-1.14.71-.92 1.31-1.7 1.79-2.34s.79-1 .91-1.14q2.33-2.94 4.71-5.88a62.12 62.12 0 015.06-5.58l.33-.3a3.46 3.46 0 01.54-.39c.19-.1.32-.13.42-.09s.1.2 0 .48a36.49 36.49 0 01-1.71 3.3q-.94 1.56-2 3.27t-2.44 3.66c-.88 1.3-1.85 2.77-2.93 4.41q1.91-.24 4-.45l4.13-.45c3.73-.36 7.24-.71 10.57-1s6.75-.67 10.32-1l3.63-.3q1.34-.14 2.49-.2z"/><path d="M96.43 41.62a.88.88 0 01-.18.3 17.44 17.44 0 01-1.56 1.38l-1.68 1.32q-2.76 2-5.94 4.62a14 14 0 00-1.83 1.53q-.81.81-1.77 1.65l-.75.57q-.51.39-.63.51a1.32 1.32 0 01-1.26.33 1.91 1.91 0 01-1.2-.69 1.53 1.53 0 01-.33-1.32 6.55 6.55 0 01.45-1.38 30.88 30.88 0 011.41-2.82q.75-1.32 1.65-2.7-.9.78-1.74 1.56t-1.68 1.44q-1.32 1.2-2.64 2.28t-2.76 2.16q-.36.3-.87.66a5.22 5.22 0 01-1 .57 2.73 2.73 0 01-1 .21 1.67 1.67 0 01-1-.36 1.62 1.62 0 01-.69-1.32 4 4 0 01.21-1.5 15.38 15.38 0 011.95-4.17 38.57 38.57 0 012.79-3.78 35.54 35.54 0 012.64-2.85q1.2-1.14 1.56-1.44a27 27 0 012.55-2.1 23.77 23.77 0 013.15-1.95 20.5 20.5 0 013.34-1.41 11.61 11.61 0 013.39-.54 8.18 8.18 0 011.86.24 2.47 2.47 0 011.5.9 1.49 1.49 0 01.18.27q.12.21-.06.15a6.9 6.9 0 00-3.12-.12 11.68 11.68 0 00-2.94 1 15.73 15.73 0 00-2.76 1.77q-1.32 1-2.58 2-1.08.9-2.34 2.16a31 31 0 00-2.46 2.79q-1.2 1.53-2.31 3.24a28.85 28.85 0 00-1.95 3.51q2.4-1.56 5.07-3.57t5.19-3.87q1.2-1 2.61-2t2.73-2.07l.99-.76q.57-.45 1.14-.84l1-.72a1.42 1.42 0 01.63-.33.74.74 0 01.78.21.75.75 0 01.18.75.92.92 0 01-.24.42l-.53.66-.58.66a3.19 3.19 0 00-.33.42c-.64.72-1.34 1.56-2.13 2.52l-2.28 2.79q-1.11 1.35-1.92 2.37l-1 1.32 1.47-1q.93-.6 1.47-1 1.68-1.14 3.42-2.19t3.6-2a2.78 2.78 0 01.6-.36q.41-.2.53-.08z"/><path d="M111.19 41.32q.06.12-.48.6l-1.26 1.1q-.72.63-1.44 1.2t-1 .81q-1 .72-1.89 1.47t-1.85 1.52q-1.44 1.2-2.76 2.4t-2.64 2.52l-.81.81a4.89 4.89 0 01-.87.69 1.85 1.85 0 01-1.74.09 1.52 1.52 0 01-1-1.41 3.18 3.18 0 01.39-1.92q.51-1 1-1.68 1.38-2.28 2.88-4.41t2.82-4.41a1.05 1.05 0 00.09-.9q-.15-.54-.27-1-2 1.8-4.5 3.69t-4.74 3.39a42.57 42.57 0 01-3.81 2.34q-1.59.84-1.71.66t.93-.9l2.49-2 3.3-2.64q1.8-1.44 3.39-2.88t2.73-2.7a5.14 5.14 0 001.32-2.1 17.67 17.67 0 010-2.28 3.69 3.69 0 01.93-2.22 2.28 2.28 0 011.74-.78 1.58 1.58 0 011.5 1.08 2.5 2.5 0 01.06 2.07q-.42 1-.9 1.89-.12.3-.24.54a1.34 1.34 0 00-.12.6 6.05 6.05 0 00.45 1.59q.33.75.75 1.59a3.92 3.92 0 01.27 2.25 5 5 0 01-1 2.07q-.72 1-1.5 2.07t-1.5 2.07q1.38-.9 2.7-1.86t2.7-1.86l1-.69q.84-.57 1.83-1.14l1.77-1q.87-.51.99-.33zM160.99.46q.12.12 0 .54a8.83 8.83 0 01-.42 1q-.27.54-.54 1t-.39.66q-1.68 2.94-3.54 5.79t-3.84 5.85q-2.28 3.36-4.59 6.63l-4.65 6.57q-2 2.82-4.29 5.85t-4.29 5.91a.46.46 0 01.06.18.46.46 0 00.06.18q1.44-1.14 3.48-2.64t4.14-2.94q2.1-1.44 4-2.58a20.72 20.72 0 013.15-1.62.6.6 0 01.42-.09q.24 0 .06.33a2.4 2.4 0 01-.45.63 6.91 6.91 0 00-.51.57q-1.32 1.32-3 2.7t-3.42 2.64q-1.77 1.26-3.63 2.4a29.37 29.37 0 01-3.66 1.92.17.17 0 01-.12.06.05.05 0 00-.06.06q.9 3.06 1.83 6.27t1.77 6.39a1.94 1.94 0 01.12.72q0 .42-.48.36a1.87 1.87 0 01-.75-.27 7.17 7.17 0 01-.63-.45 6.54 6.54 0 01-1.23-1.35q-.51-.75-1-1.59a26.93 26.93 0 01-1.8-3.93 39.2 39.2 0 01-1.32-4.17q-1.56 2.1-3 4.17a50.16 50.16 0 01-3.15 4 7.55 7.55 0 01-.87 1 1.48 1.48 0 01-1 .48 1.14 1.14 0 01-1.14-.63 1.46 1.46 0 010-1.29 39.5 39.5 0 013.24-5.22l2.55-3.87q1.29-2 2.67-3.87v-1.05q0-.57.09-1 .06-.3.18-.75a.77.77 0 01.42-.57.64.64 0 01.6.3 3.36 3.36 0 01.42.6q2.28-3.24 4.59-6.42t4.71-6.42q2.4-3.24 4.83-6.42t4.95-6.3q1.74-2.16 3.57-4.32t3.81-4.26l.36-.36.63-.63a3.36 3.36 0 01.63-.51q.31-.3.43-.24z"/><path d="M155.41 41.08a2.74 2.74 0 01.63-.36q.51-.24.57-.12v.09s-.06.09-.18.21q-2.22 2-4.53 3.81t-4.59 3.69q-1 .84-2.37 2.16l-2.32 2.16q-.36.3-.81.63a4.54 4.54 0 01-1 .54 2 2 0 01-1 .15 2 2 0 01-1.05-.54 1.41 1.41 0 01-.33-1.32 6.29 6.29 0 01.45-1.5 19 19 0 011.86-3.39q1.26-1.89 2.85-3.87t3.3-3.87q1.71-1.89 3.21-3.39t2.58-2.46a6.18 6.18 0 011.44-1.08.8.8 0 01.66-.06.6.6 0 01.21.18q.09.12 0 .36-.78 1.44-1.86 3.12t-2.34 3.51l-2.61 3.78q-1.35 1.95-2.61 4 .54-.42 1.44-1l1.44-1 3.42-2.25q1.68-1.16 3.54-2.18zm6.72-18.06a1.52 1.52 0 010 1 3.09 3.09 0 01-.48 1 4.81 4.81 0 01-.75.81 3.3 3.3 0 01-.84.54 3.18 3.18 0 01-.87.27 4.18 4.18 0 01-1 .06 2.69 2.69 0 01-.9-.21 1.09 1.09 0 01-.6-.66 1.89 1.89 0 01.24-1.83 4 4 0 011.38-1.29 3.13 3.13 0 01.9-.39 4.13 4.13 0 011.11-.15 3 3 0 011 .18 1.27 1.27 0 01.81.67z"/><path d="M198.67.02v.36a5 5 0 01-.24.63q-.15.33-.3.63l-.21.42a71.66 71.66 0 01-3.84 6.54l-4.2 6.36q-2.28 3.36-4.59 6.63t-4.71 6.57q-3.66 5.1-7.35 10.17t-7.71 10l1.41-1q.81-.57 1.29-.87 1.68-1.2 3.69-2.4t3.81-2.16a2.74 2.74 0 01.63-.36q.51-.24.57-.12a4.37 4.37 0 01-.9.9q-.78.66-1.74 1.41l-1.86 1.44-1.2.93q-1.62 1.26-3.42 2.88l-3.36 3q-.78.66-1.2 1.05a6.5 6.5 0 01-1.32.87 2 2 0 01-2.22-.42 1.62 1.62 0 01-.27-1.47 14.4 14.4 0 01.45-1.53 20.92 20.92 0 011.74-3.21q1.14-1.77 2-3.09-2.22 2-5 4.29t-5.34 4.17q-.36.3-.87.66a6.78 6.78 0 01-1 .6 2.44 2.44 0 01-1.05.24 1.67 1.67 0 01-1-.36 1.79 1.79 0 01-.69-1.38 4.4 4.4 0 01.21-1.56 20.64 20.64 0 012.4-5 33.47 33.47 0 013.18-4.08 36.94 36.94 0 013.27-3.18q1.59-1.35 2.67-2.19t2.64-1.65a26.07 26.07 0 013.18-1.56 17.77 17.77 0 013.39-1 7.53 7.53 0 013.21 0q1.8-2.46 3.33-4.68t3.33-4.62l4.89-6.42q2.43-3.18 4.95-6.3 1.74-2.22 3.57-4.41t3.81-4.17l.36-.39q.3-.33.63-.63a6.42 6.42 0 01.63-.51q.23-.13.35-.03zm-45.42 50.64q2.22-1.68 4.68-3.42t4.92-3.78a52.68 52.68 0 004.77-4.44 38.93 38.93 0 004.29-5.52 6.88 6.88 0 00-2.67.45 14.9 14.9 0 00-2.73 1.32 25.42 25.42 0 00-2.46 1.71q-1.14.9-1.92 1.56a16.25 16.25 0 00-1.74 1.77q-1.14 1.29-2.46 3t-2.61 3.63a23.22 23.22 0 00-2.07 3.74z"/><path d="M188.47 32.62a2 2 0 01-.24 1.2 4.46 4.46 0 01-.75 1q-.45.45-1 .87a3.34 3.34 0 00-.81 1 15.41 15.41 0 00-1.05 2.16q-.45 1.14-.81 2.28l-.69 2.43q-.33 1.17-.63 2.37a13.77 13.77 0 01-1.86 4 8.77 8.77 0 01-3.18 2.88 8.43 8.43 0 01-4.5 1 5.24 5.24 0 01-2-.66 1.32 1.32 0 01-.36-.18l-.63-.36a2.35 2.35 0 01-.54-.39q-.21-.21-.15-.33t.66.09a3.69 3.69 0 00.72.21 5.9 5.9 0 001.74.24 5.51 5.51 0 003.06-1.14 8.88 8.88 0 002.07-2.22 6.43 6.43 0 001.11-2.76q.24-1.38.45-2.85t.39-3a36.68 36.68 0 01-3.72 2.94q-2.22 1.56-4.35 2.85t-3.69 2.1q-1.56.81-1.74.63t1.59-1.47q1.71-1.29 4.14-3.18t5-4.17a26.89 26.89 0 004.11-4.5q.54-.84 1.08-1.65t1.2-1.65a7.42 7.42 0 011.53-1.34 3.41 3.41 0 011.77-.48 2 2 0 011.44.6 2.2 2.2 0 01.64 1.48z"/></svg>