<svg xmlns="http://www.w3.org/2000/svg" aria-hidden="true" focusable="false" data-prefix="fas" data-icon="mask" role="img" width="640" height="384"><rect id="backgroundrect" width="100%" height="100%" x="0" y="0" fill="none" stroke="none"/><g class="currentLayer" style=""><title>Layer 1</title><path fill="#5c597b" d="M320.66896240234377,0 c-442.6,0 -357.57,384 -158.46,384 c39.9,0 77.47,-20.69 101.42,-55.86 l25.73,-37.79 c15.66,-22.99 46.97,-22.99 62.63,0 l25.73,37.79 C401.6589624023438,363.31 439.22896240234377,384 479.12896240234375,384 c189.86,0 290.63,-384 -158.46,-384 zM183.99896240234375,244.36 c-41.06,0 -67.76,-25.66 -80.08,-41.05 c-5.23,-6.53 -5.23,-16.09 0,-22.63 c12.32,-15.4 39.01,-41.05 80.08,-41.05 s67.76,25.66 80.08,41.05 c5.23,6.53 5.23,16.09 0,22.63 c-12.32,15.4 -39.02,41.05 -80.08,41.05 zm272,0 c-41.06,0 -67.76,-25.66 -80.08,-41.05 c-5.23,-6.53 -5.23,-16.09 0,-22.63 c12.32,-15.4 39.01,-41.05 80.08,-41.05 s67.76,25.66 80.08,41.05 c5.23,6.53 5.23,16.09 0,22.63 c-12.32,15.4 -39.02,41.05 -80.08,41.05 z" class="" id="svg_1"/></g></svg>