<svg xmlns="http://www.w3.org/2000/svg" xmlns:xlink="http://www.w3.org/1999/xlink" version="1.1" style="" xml:space="preserve" width="135" height="185"><rect id="backgroundrect" width="100%" height="100%" x="0" y="0" fill="none" stroke="none" class="" style=""/>
<title>logo</title>








<g class="currentLayer" style="" fill="#e7e6eb"><title>Layer 1</title><path d="M16.300000762939455,125.20000076293945 l3.9,-3.9 c1.5,-1.5 3,-2.9 4.6,-4.3 c1.5,-1.4 3.1,-2.6 4.8,-3.8 c1.4,-1 3,-1.7000000000000002 4.7,-2.1 c1.4,-0.30000000000000004 3,-0.2 4.3,0.4 c1.6,0.9 2.8,2.3 3.6,4 c1,1.9 1.6,4.1 1.8,6.3 c0.2,2.2 0.2,4.3 0,6.5 c-0.2,2.5 -0.6000000000000001,5 -1.1,7.5 c-0.5,2.5 -1.1,5 -1.8,7.5 c-0.9,2.9 -1.8,5.7 -2.8,8.4 c-1,2.7 -2,5.4 -3.2,8.1 c-1.2,2.6 -2.4,5.3 -3.7,7.8 c-1.3,2.5 -2.7,5 -4.2,7.5 c-0.7000000000000001,1.2 -1.5,2.5 -2.3,3.7 c-0.8,1.2 -1.8,2.3 -2.9,3.3 c-0.5,0.5 -1.1,0.9 -1.7000000000000002,1.4 c-0.6000000000000001,0.4 -1.2,0.7000000000000001 -1.9,0.9 c-0.6000000000000001,0.2 -1.3,0.2 -2,0 c-0.6000000000000001,-0.2 -1.1,-0.5 -1.6,-0.9 c-0.5,-0.4 -0.9,-0.9 -1.2,-1.5 c-0.30000000000000004,-0.6000000000000001 -0.6000000000000001,-1.2 -0.9,-1.8 c-0.7000000000000001,-1.9 -1.1,-3.9 -1.2,-5.9 c-0.1,-2.1 -0.1,-4.1 -0.2,-6.1 c0,-0.2 0,-0.5 0,-0.9 l0.1,-1.2 c0,-0.4 0.1,-0.8 0.1,-1 c0.1,-0.30000000000000004 0.1,-0.4 0.2,-0.5 c0.1,0 0.2,0.1 0.2,0.30000000000000004 c0,0.1 0,0.2 0.1,0.4 c0.2,0.9 0.30000000000000004,1.8 0.4,2.7 c0.1,0.9 0.30000000000000004,1.9 0.4,2.9 c0,0.30000000000000004 0.1,0.7000000000000001 0.2,1.4 c0.1,0.7000000000000001 0.2,1.4 0.4,2.3 c0.2,0.8 0.4,1.7000000000000002 0.6000000000000001,2.6 c0.2,0.8 0.5,1.6 0.8,2.4 c0.30000000000000004,0.6000000000000001 0.6000000000000001,1.2 1.1,1.7000000000000002 c0.30000000000000004,0.4 0.8,0.6000000000000001 1.3,0.4 c0.7000000000000001,-0.1 1.3,-0.5 1.7000000000000002,-1 c0.5,-0.5 1,-1 1.4,-1.6 c1.2,-1.5 2.3,-3.1 3.2,-4.7 c1.1,-1.9 2.1,-3.9 3.1,-6 c1,-2.1 2,-4.2 2.9,-6.4 c0.9,-2.2 1.7000000000000002,-4.2 2.5,-6 c1.1,-2.8 2.1,-5.6 3,-8.4 s1.7000000000000002,-5.6 2.5,-8.5 c0.5,-2.3 1,-4.7 1.4,-7.1 c0.4,-2.4 0.6000000000000001,-4.8 0.6000000000000001,-7.2 C39.70000076293945,124.20000076293945 39.70000076293945,123.40000076293946 39.70000076293945,122.30000076293945 c0,-1.1 -0.1,-2.2 -0.30000000000000004,-3.3 c-0.2,-1.1 -0.5,-2.2 -0.8,-3.3 c-0.4,-1 -1,-1.8 -1.8,-2.4 c-0.9,-0.5 -2,-0.6000000000000001 -2.9,0 c-1.5,0.7000000000000001 -2.8,1.6 -4,2.6 c-1.7000000000000002,1.4 -3.3,2.9 -4.8,4.5 c-1.7000000000000002,1.8 -3.4,3.6 -5.2,5.5 L14.700000762939453,131.60000076293946 c-1.7000000000000002,1.9 -3.3,3.5 -4.8,5 c-1.3,1.3 -2.6,2.4 -4.1,3.4 c-0.9,0.7000000000000001 -2.1,1.1 -3.2,0.9 c-1.2,-0.2 -2,-1.5 -2.4,-3.6 c-0.4,-2.2 -0.2,-5.3 0.6000000000000001,-9.3 c1.3,-5.7 3.3,-11.2 6.2,-16.3 c0.7000000000000001,-1.2 1.5,-2.4 2.3,-3.5 c0.8,-1.2 1.8,-2.2 2.8,-3.2 l1.3,-1.1 c0.4,-0.4 0.9,-0.7000000000000001 1.4,-1 c0.5,-0.30000000000000004 1,-0.5 1.6,-0.6000000000000001 c0.6000000000000001,-0.1 1.1,-0.1 1.7000000000000002,0.1 c0.7000000000000001,0.2 1.3,0.8 1.6,1.5 c0.30000000000000004,0.7000000000000001 0.4,1.5 0.4,2.3 c0,0.9 -0.2,1.7000000000000002 -0.4,2.6 c-0.2,0.9 -0.4,1.6 -0.6000000000000001,2.1 c-0.1,0.30000000000000004 -0.2,0.6000000000000001 -0.4,0.9 c-0.1,0.2 -0.2,0.4 -0.4,0.6000000000000001 c0,-0.2 0.1,-0.8 0.1,-1.8 c0.1,-1 0.1,-2 0,-3 c0,-0.9 -0.2,-1.8 -0.6000000000000001,-2.6 c-0.30000000000000004,-0.7000000000000001 -0.9,-0.8 -1.7000000000000002,-0.4 c-0.6000000000000001,0.30000000000000004 -1.2,0.7000000000000001 -1.7000000000000002,1.2 c-0.5,0.5 -0.9,1 -1.3,1.5 c-0.5,0.6000000000000001 -0.9,1.1 -1.3,1.7000000000000002 c-0.4,0.6000000000000001 -0.8,1.2 -1.1,1.8 c-1.5,2.5 -2.7,5.2 -3.6,7.9 c-0.9,2.8 -1.7000000000000002,5.6 -2.4,8.4 c-0.30000000000000004,1.5 -0.6000000000000001,3 -0.8,4.6 c-0.2,1.6 -0.2,3.2 0,4.7 c1.1,-0.6000000000000001 2.1,-1.3 3,-2.1 c1.1,-0.9 2.2,-2 3.4,-3.1 c1.1,-1.1 2.2,-2.2 3.3,-3.3 L16.300000762939455,125.20000076293945 z" id="svg_1" class=""/><path d="M68.50000076293945,61.00000076293945 c1,-1.2 1.6,-1.7000000000000002 1.7000000000000002,-1.7000000000000002 c-0.4,0.7000000000000001 -0.8,1.4 -1.2,2 c-0.4,0.6000000000000001 -0.9,1.4 -1.5,2.2 l-2.1,3 l-6.1,8.4 c-2,2.7 -4.1,5.6 -6.3,8.6 c-1.1,1.5 -2.2,2.9 -3.2,4.3 c-1.1,1.4 -2.1,2.8 -3.1,4.1 c0.4,2.1 0.8,4 1.1,5.6 l0.6000000000000001,3.2 c0.4,2.5 0.8,5 1.2,7.5 l1.1,7.5 c0.30000000000000004,2.1 0.6000000000000001,4.2 0.9,6.2 c0.30000000000000004,2 0.6000000000000001,4.1 1,6.2 c0.30000000000000004,-1.7000000000000002 0.6000000000000001,-3.4 0.9,-5.1 c0.4,-1.7000000000000002 0.7000000000000001,-3.4 1.1,-5.1 c0.1,-0.4 0.2,-0.7000000000000001 0.30000000000000004,-1.1 l0.4,-1 c0.1,-0.4 0.2,-0.5 0.30000000000000004,-0.5 c0.1,0.1 0.1,0.4 0.1,1.1 s-0.1,1.3 -0.2,2.1 c-0.1,0.8 -0.2,1.5 -0.30000000000000004,2.2 c-0.1,0.7000000000000001 -0.2,1.2 -0.2,1.4 l-0.4,4 c-0.1,1.3 -0.30000000000000004,2.7 -0.30000000000000004,4.1 c-0.1,0.5 -0.1,1 -0.1,1.5 l-0.1,1.6 c0,0.4 -0.1,0.8 -0.2,1.2 c-0.1,0.4 -0.4,0.8 -0.8,0.9 c-0.4,0.2 -0.9,0.30000000000000004 -1.4,0.1 c-0.4,-0.2 -0.7000000000000001,-0.5 -0.9,-0.9 c-0.30000000000000004,-0.4 -0.5,-0.9 -0.6000000000000001,-1.4 L49.70000076293945,132.00000076293946 c-0.2,-0.8 -0.4,-1.5 -0.5,-2.2 c-0.1,-0.7000000000000001 -0.30000000000000004,-1.4 -0.4,-2.2 c-0.5,-2.7 -1,-5.4 -1.4,-8 c-0.4,-2.6 -0.9,-5.3 -1.3,-8 c-0.1,-0.7000000000000001 -0.30000000000000004,-1.7000000000000002 -0.4,-2.9 s-0.4,-2.6 -0.6000000000000001,-4 c-0.2,-1.4 -0.4,-2.9 -0.6000000000000001,-4.5 L43.70000076293945,95.70000076293945 c-0.6000000000000001,0.7000000000000001 -1.2,1.5 -1.9,2.3 c-0.7000000000000001,0.8 -1.4,1.7000000000000002 -2.1,2.5 l-2.1,2.4 c-0.7000000000000001,0.7000000000000001 -1.3,1.4 -1.8,1.9 c-1.1,1.1 -1.8,1.6 -2,1.4 c-0.1,-0.1 -0.1,-0.30000000000000004 0.1,-0.7000000000000001 c0.2,-0.5 0.5,-1.1 0.8,-1.6 c1.1,-2 2.5,-4 3.9,-5.9 c1.6,-2 3,-4 4.5,-6.1 c-0.1,-1.2 -0.30000000000000004,-2.1 -0.4,-2.9 c-0.1,-0.8 -0.1,-1.3 -0.2,-1.4 c-0.30000000000000004,-2.5 -0.6000000000000001,-5 -0.8,-7.5 c-0.30000000000000004,-2.5 -0.4,-5 -0.4,-7.5 l0,-0.4 c0,-0.2 0,-0.4 0.1,-0.7000000000000001 c0.1,-0.2 0.1,-0.30000000000000004 0.2,-0.4 c0.1,0 0.2,0.1 0.30000000000000004,0.30000000000000004 c0.4,1.2 0.8,2.3 1.1,3.5 c0.30000000000000004,1.2 0.6000000000000001,2.4 0.9,3.7 c0.30000000000000004,1.3 0.6000000000000001,2.7 0.9,4.3 c0.30000000000000004,1.5 0.7000000000000001,3.3 1,5.2 c0.8,-1 1.6,-2.1 2.5,-3.1 l2.6,-3.2 c2.4,-2.9 4.6,-5.6 6.8,-8.2 s4.3,-5.2 6.6,-8 l2.4,-2.8 C67.40000076293946,62.20000076293945 67.90000076293946,61.50000076293945 68.50000076293945,61.00000076293945 z" id="svg_2" class=""/><path d="M69.50000076293945,101.70000076293945 c0.1,0.1 0.1,0.2 0.1,0.30000000000000004 c0,0.7000000000000001 0,1.4 -0.1,2.1 l-0.30000000000000004,2.1 c-0.4,2.2 -0.7000000000000001,4.7 -0.9,7.5 c-0.1,0.8 -0.2,1.6 -0.2,2.4 c0,0.8 0,1.6 -0.1,2.4 l-0.1,0.9 c-0.1,0.4 -0.1,0.7000000000000001 -0.1,0.8 c0,0.5 -0.30000000000000004,0.9 -0.7000000000000001,1.1 c-0.4,0.30000000000000004 -0.9,0.4 -1.3,0.4 c-0.5,0 -0.9,-0.30000000000000004 -1.2,-0.7000000000000001 c-0.30000000000000004,-0.4 -0.5,-0.8 -0.7000000000000001,-1.3 c-0.4,-1 -0.7000000000000001,-2 -1,-3 c-0.30000000000000004,-1 -0.5,-2 -0.7000000000000001,-3.1 c-0.1,0.8 -0.1,1.6 -0.1,2.3 c0,0.8 -0.1,1.5 -0.2,2.2 c-0.1,1.2 -0.1,2.3 -0.30000000000000004,3.5 c-0.1,1.1 -0.30000000000000004,2.3 -0.4,3.5 c0,0.30000000000000004 -0.1,0.7000000000000001 -0.1,1.1 c-0.1,0.4 -0.2,0.8 -0.30000000000000004,1.1 c-0.1,0.30000000000000004 -0.30000000000000004,0.6000000000000001 -0.6000000000000001,0.9 c-0.30000000000000004,0.30000000000000004 -0.6000000000000001,0.4 -1,0.5 c-0.5,0.1 -1,-0.1 -1.4,-0.4 c-0.4,-0.30000000000000004 -0.7000000000000001,-0.8 -0.9,-1.2 c-0.7000000000000001,-1.4 -1.3,-2.8 -1.6,-4.3 c-0.30000000000000004,-1.5 -0.6000000000000001,-3.1 -0.7000000000000001,-4.6 c-0.1,-1.3 -0.2,-2.6 -0.1,-3.9 c0,-1.1 0.1,-1.8 0.1,-2.1 c0,-1.1 0.1,-2.2 0.30000000000000004,-3.3 c0.2,-1.2 0.5,-2.4 0.8,-3.6 c0.4,-1.2 0.8,-2.3 1.4,-3.4 c0.5,-1 1.2,-2 2,-2.8 c0.4,-0.4 0.9,-0.8 1.5,-1.1 c0.5,-0.30000000000000004 1.1,-0.5 1.7000000000000002,-0.4 c0.1,0 0.2,0 0.30000000000000004,0.1 c0.2,0 0.2,0.1 0.1,0.1 c-0.9,0.5 -1.7000000000000002,1.2 -2.3,2.1 c-0.6000000000000001,0.9 -1,1.8 -1.4,2.8 c-0.30000000000000004,1 -0.6000000000000001,2.1 -0.7000000000000001,3.2 c-0.2,1.1 -0.30000000000000004,2.2 -0.4,3.2 c-0.1,0.9 -0.1,2 -0.1,3.2 c0,1.2 0.1,2.5 0.2,3.7 c0.2,1.3 0.4,2.6 0.7000000000000001,3.9 c0.30000000000000004,1.3 0.6000000000000001,2.6 1.1,3.9 c0.4,-1.9 0.7000000000000001,-3.9 1.1,-6.1 c0.30000000000000004,-2.2 0.6000000000000001,-4.3 0.9,-6.4 c0.1,-1 0.2,-2.1 0.4,-3.3 c0.2,-1.1 0.30000000000000004,-2.3 0.5,-3.4 l0.2,-1.2 c0.1,-0.5 0.1,-0.9 0.2,-1.4 l0.2,-1.2 c0,-0.2 0.1,-0.5 0.2,-0.7000000000000001 c0.1,-0.30000000000000004 0.4,-0.4 0.7000000000000001,-0.4 c0.30000000000000004,0 0.5,0.2 0.7000000000000001,0.4 c0.1,0.1 0.1,0.30000000000000004 0.1,0.5 l0.1,0.8 l0.1,0.9 c0,0.2 0,0.4 0.1,0.5 c0.1,1 0.2,2.1 0.30000000000000004,3.3 l0.4,3.6 c0.1,1.2 0.2,2.2 0.30000000000000004,3 l0.2,1.6 l0.30000000000000004,-1.7000000000000002 c0.2,-0.7000000000000001 0.30000000000000004,-1.3 0.30000000000000004,-1.7000000000000002 c0.30000000000000004,-1.3 0.5,-2.7 0.9,-4 s0.7000000000000001,-2.6 1.1,-4 c0,-0.2 0.1,-0.5 0.2,-0.7000000000000001 C69.30000076293945,101.80000076293945 69.40000076293946,101.70000076293945 69.50000076293945,101.70000076293945 z" id="svg_3" class=""/><path d="M79.70000076293945,91.10000076293946 c0.1,0 0.1,0.30000000000000004 0.1,0.8 l-0.1,1.7000000000000002 c0,0.6000000000000001 -0.1,1.3 -0.2,1.9 c-0.1,0.6000000000000001 -0.1,1 -0.1,1.3 c-0.1,0.8 -0.2,1.6 -0.30000000000000004,2.4 c-0.1,0.8 -0.1,1.6 -0.2,2.4 c-0.1,1.2 -0.2,2.5 -0.30000000000000004,3.6 c-0.1,1.2 -0.1,2.4 -0.1,3.6 v1.1 c0,0.4 0,0.7000000000000001 -0.1,1.1 c-0.1,0.6000000000000001 -0.6000000000000001,1.1 -1.2,1.3 c-0.6000000000000001,0.30000000000000004 -1.3,0.2 -1.7000000000000002,-0.30000000000000004 c-0.5,-0.4 -0.9,-1 -1.1,-1.6 c-0.2,-0.7000000000000001 -0.4,-1.3 -0.5,-1.9 c-0.4,-1.7000000000000002 -0.8,-3.4 -1.1,-5.2 s-0.7000000000000001,-3.4 -1.1,-5.1 c-0.1,-0.30000000000000004 -0.30000000000000004,-0.6000000000000001 -0.6000000000000001,-0.7000000000000001 c-0.30000000000000004,-0.2 -0.6000000000000001,-0.4 -0.9,-0.5 c-0.1,1.8 -0.30000000000000004,3.7 -0.6000000000000001,5.8 c-0.30000000000000004,2.1 -0.6000000000000001,4 -1,5.7 c-0.30000000000000004,1.5 -0.6000000000000001,2.9 -1,4.3 c-0.4,1.1 -0.6000000000000001,1.7000000000000002 -0.7000000000000001,1.7000000000000002 c-0.1,0 -0.1,-0.5 0,-1.3 l0.30000000000000004,-3.2 l0.5,-4.2 c0.2,-1.5 0.30000000000000004,-3 0.4,-4.4 c0.1,-1.4 0.1,-2.7 0,-3.8 c0,-0.8 -0.2,-1.7000000000000002 -0.6000000000000001,-2.4 c-0.6000000000000001,-0.5 -1.1,-1 -1.6,-1.6 c-0.5,-0.6000000000000001 -0.9,-1.4 -0.9,-2.2 c0,-0.7000000000000001 0.2,-1.3 0.7000000000000001,-1.8 c0.5,-0.5 1.2,-0.6000000000000001 1.8,-0.30000000000000004 c0.7000000000000001,0.2 1.2,0.8 1.5,1.4 c0.30000000000000004,0.7000000000000001 0.5,1.3 0.7000000000000001,2 c0.1,0.2 0.2,0.4 0.2,0.6000000000000001 c0.1,0.2 0.2,0.4 0.30000000000000004,0.5 c0.4,0.30000000000000004 0.9,0.6000000000000001 1.4,0.8 c0.5,0.2 1.1,0.4 1.7000000000000002,0.6000000000000001 c0.7000000000000001,0.30000000000000004 1.3,0.8 1.8,1.4 c0.4,0.7000000000000001 0.7000000000000001,1.4 0.8,2.2 c0.1,0.8 0.30000000000000004,1.7000000000000002 0.4,2.5 s0.30000000000000004,1.7000000000000002 0.4,2.5 c0.2,-1.1 0.4,-2.1 0.6000000000000001,-3.2 c0.2,-1.1 0.4,-2.1 0.6000000000000001,-3.2 l0.2,-1.2 c0.1,-0.7000000000000001 0.30000000000000004,-1.4 0.5,-2.1 l0.5,-2 C79.40000076293946,91.30000076293945 79.60000076293946,91.00000076293945 79.70000076293945,91.10000076293946 z" id="svg_4" class=""/><path d="M86.00000076293945,27.00000076293945 c0.1,0 0.2,0.1 0.4,0.4 c0.2,0.30000000000000004 0.30000000000000004,0.7000000000000001 0.4,1 c0.1,0.4 0.2,0.7000000000000001 0.30000000000000004,1.1 c0.1,0.30000000000000004 0.2,0.6000000000000001 0.2,0.7000000000000001 c0.6000000000000001,2.2 1.1,4.4 1.6,6.6 s0.9,4.5 1.4,6.9 c0.5,2.7 1,5.3 1.4,7.9 l1.4,7.9 c0.4,2.3 0.8,4.7 1.1,7.2 c0.30000000000000004,2.5 0.7000000000000001,4.9 1.1,7.2 c0.1,0 0.1,0 0.2,0.1 c0.1,0 0.1,0.1 0.2,0.1 c0.1,-1.2 0.30000000000000004,-2.7 0.6000000000000001,-4.3 c0.30000000000000004,-1.7000000000000002 0.5,-3.3 0.8,-5 c0.30000000000000004,-1.7000000000000002 0.6000000000000001,-3.2 1,-4.7 c0.30000000000000004,-1.2 0.6000000000000001,-2.3 1.1,-3.4 c0,-0.1 0.1,-0.30000000000000004 0.2,-0.4 c0.1,-0.1 0.2,0 0.30000000000000004,0.2 c0.1,0.2 0.1,0.5 0.1,0.8 c0,0.30000000000000004 0,0.5 0,0.8 c0,1.2 -0.1,2.6 -0.2,4 s-0.30000000000000004,2.9 -0.6000000000000001,4.3 c-0.2,1.4 -0.5,2.8 -0.9,4.3 c-0.30000000000000004,1.3 -0.7000000000000001,2.7 -1.2,3.9 c0,0 0,0.1 0,0.1 c0,0 0,0 0,0.1 c0,0 0,0 0,0 c1.9,1 3.8,2.1 5.7,3.1 c2,1.1 3.9,2.2 5.8,3.3 c0.2,0.1 0.4,0.2 0.6000000000000001,0.4 c0.2,0.2 0.2,0.4 -0.1,0.6000000000000001 c-0.2,0.2 -0.5,0.30000000000000004 -0.7000000000000001,0.30000000000000004 c-0.30000000000000004,0.1 -0.5,0.1 -0.8,0.1 c-0.6000000000000001,0.1 -1.2,0 -1.8,-0.1 c-0.6000000000000001,-0.1 -1.2,-0.30000000000000004 -1.8,-0.4 c-1.4,-0.4 -2.7,-0.9 -4.1,-1.5 c-1.3,-0.6000000000000001 -2.6,-1.3 -3.9,-2 c0.30000000000000004,1.7000000000000002 0.5,3.4 0.8,5.1 c0.30000000000000004,1.7000000000000002 0.5,3.4 0.6000000000000001,5.1 c0.1,0.4 0.1,0.9 0.1,1.3 c0,0.4 -0.1,0.8 -0.4,1 c-0.30000000000000004,0.4 -0.8,0.5 -1.3,0.4 c-0.4,-0.1 -0.8,-0.5 -0.9,-0.9 c-0.6000000000000001,-2 -1.1,-4 -1.4,-6 l-0.9,-4.5 c-0.30000000000000004,-1.6 -0.6000000000000001,-3.1 -0.8,-4.6 c-0.2,-0.2 -0.5,-0.5 -0.7000000000000001,-0.7000000000000001 c-0.30000000000000004,-0.30000000000000004 -0.5,-0.5 -0.6000000000000001,-0.8 c-0.1,-0.2 -0.2,-0.4 -0.4,-0.7000000000000001 c-0.1,-0.2 -0.2,-0.5 -0.1,-0.7000000000000001 c0.2,-0.2 0.4,-0.30000000000000004 0.6000000000000001,-0.2 c0.2,0 0.5,0.1 0.7000000000000001,0.1 c-0.5,-2.6 -0.9,-5.2 -1.3,-7.8 c-0.4,-2.6 -0.8,-5.2 -1.2,-7.9 c-0.4,-2.7 -0.8,-5.3 -1.1,-8 c-0.4,-2.6 -0.7000000000000001,-5.3 -1,-8 c-0.2,-1.8 -0.4,-3.7 -0.5,-5.6 c-0.2,-1.9 -0.30000000000000004,-3.8 -0.30000000000000004,-5.7 v-0.5 l0,-0.9 c0,-0.30000000000000004 0,-0.5 0.1,-0.8 C85.90000076293946,27.10000076293945 85.90000076293946,27.00000076293945 86.00000076293945,27.00000076293945 z" id="svg_5" class=""/><path d="M110.80000076293945,59.60000076293945 c0,-0.2 0.1,-0.5 0.2,-0.7000000000000001 c0.1,-0.4 0.2,-0.5 0.30000000000000004,-0.5 l0.1,0.1 c0,0 0,0.1 0,0.30000000000000004 c-0.1,2 -0.30000000000000004,4 -0.5,5.9 c-0.2,1.9 -0.4,3.9 -0.6000000000000001,5.9 c-0.1,0.9 -0.1,1.9 -0.1,3.2 l-0.1,3.2 c0,0.30000000000000004 -0.1,0.7000000000000001 -0.1,1 c-0.1,0.4 -0.2,0.7000000000000001 -0.30000000000000004,1.1 c-0.1,0.30000000000000004 -0.30000000000000004,0.6000000000000001 -0.6000000000000001,0.8 c-0.30000000000000004,0.2 -0.7000000000000001,0.4 -1.1,0.4 c-0.5,0 -0.9,-0.30000000000000004 -1.2,-0.7000000000000001 c-0.30000000000000004,-0.4 -0.6000000000000001,-0.9 -0.7000000000000001,-1.4 c-0.5,-1.2 -0.8,-2.4 -1.1,-3.7 c-0.30000000000000004,-1.5 -0.5,-3.1 -0.7000000000000001,-4.8 c-0.2,-1.7000000000000002 -0.30000000000000004,-3.4 -0.4,-5.1 c-0.1,-1.7000000000000002 -0.1,-3.3 -0.1,-4.7 c0,-1.4 0,-2.6 0.1,-3.6 c0,-0.6000000000000001 0.1,-1.2 0.30000000000000004,-1.8 c0.1,-0.2 0.2,-0.4 0.4,-0.5 c0.1,0 0.2,0 0.30000000000000004,0 c0.1,0 0.2,0.1 0.30000000000000004,0.30000000000000004 c0.30000000000000004,1 0.6000000000000001,2.2 0.9,3.5 s0.6000000000000001,2.7 0.8,4.1 l0.8,4.5 c0.30000000000000004,1.6 0.6000000000000001,3.1 1,4.7 c0.1,-0.5 0.2,-1 0.30000000000000004,-1.7000000000000002 l0.30000000000000004,-1.7000000000000002 l0.8,-4 C110.10000076293946,62.300000762939455 110.40000076293944,61.00000076293945 110.80000076293945,59.60000076293945 zM102.80000076293945,42.10000076293945 c0.30000000000000004,0.1 0.6000000000000001,0.4 0.7000000000000001,0.7000000000000001 c0.2,0.30000000000000004 0.30000000000000004,0.7000000000000001 0.4,1 c0.1,0.4 0.1,0.7000000000000001 0,1.1 c0,0.30000000000000004 -0.1,0.7000000000000001 -0.2,1 c-0.1,0.30000000000000004 -0.2,0.6000000000000001 -0.4,0.8 c-0.2,0.30000000000000004 -0.4,0.5 -0.7000000000000001,0.7000000000000001 c-0.2,0.2 -0.5,0.4 -0.8,0.5 c-0.30000000000000004,0.1 -0.6000000000000001,0.1 -0.9,0 c-0.6000000000000001,-0.30000000000000004 -1,-0.8 -1.1,-1.5 c-0.1,-0.6000000000000001 -0.1,-1.3 0.1,-1.9 c0.1,-0.30000000000000004 0.2,-0.6000000000000001 0.4,-0.9 c0.2,-0.30000000000000004 0.4,-0.6000000000000001 0.7000000000000001,-0.9 c0.2,-0.2 0.5,-0.4 0.8,-0.6000000000000001 C102.00000076293946,42.00000076293945 102.40000076293944,42.00000076293945 102.80000076293945,42.10000076293945 z" id="svg_6" class=""/><path d="M112.40000076293944,7.629394502828291e-7 c0,0 0.1,0.1 0.30000000000000004,0.30000000000000004 c0.1,0.2 0.2,0.4 0.30000000000000004,0.6000000000000001 c0.1,0.2 0.2,0.4 0.2,0.7000000000000001 l0.1,0.4 c0.8,2.4 1.4,4.9 1.9,7.3 l1.5,7.5 c0.5,2.7 1,5.3 1.4,7.9 c0.5,2.6 0.9,5.3 1.3,8 c0.7000000000000001,4.1 1.3,8.3 2,12.4 s1.2,8.3 1.6,12.5 l0.30000000000000004,-1.7000000000000002 c0.1,-0.7000000000000001 0.2,-1.2 0.30000000000000004,-1.5 c0.2,-1.4 0.5,-2.8 0.9,-4.3 c0.4,-1.5 0.8,-2.9 1.2,-4.2 c0,-0.2 0.1,-0.5 0.2,-0.7000000000000001 c0.1,-0.4 0.2,-0.5 0.30000000000000004,-0.5 c0.1,0.4 0.1,0.9 0,1.3 c-0.1,0.7000000000000001 -0.1,1.4 -0.2,2.2 l-0.30000000000000004,2.3 l-0.2,1.5 c-0.2,1.4 -0.30000000000000004,2.8 -0.4,4.5 l-0.30000000000000004,4.5 c-0.1,0.7000000000000001 -0.1,1.2 -0.1,1.6 c0,0.5 -0.1,1 -0.30000000000000004,1.5 c-0.30000000000000004,0.8 -1,1.3 -1.9,1.3 c-0.5,-0.1 -1,-0.4 -1.2,-0.8 c-0.30000000000000004,-0.5 -0.5,-0.9 -0.8,-1.4 c-0.4,-1.1 -0.8,-2.3 -1,-3.5 c-0.30000000000000004,-1.4 -0.6000000000000001,-2.6 -0.8,-3.6 c-0.1,2 -0.30000000000000004,4.2 -0.5,6.6 c-0.2,2.4 -0.5,4.6 -0.8,6.7 c0,0.30000000000000004 -0.1,0.7000000000000001 -0.1,1.1 c-0.1,0.4 -0.2,0.8 -0.30000000000000004,1.1 c-0.1,0.30000000000000004 -0.30000000000000004,0.7000000000000001 -0.6000000000000001,0.9 c-0.30000000000000004,0.30000000000000004 -0.6000000000000001,0.4 -1,0.5 c-0.5,0.1 -1.1,-0.1 -1.5,-0.5 c-0.4,-0.4 -0.7000000000000001,-0.8 -1,-1.3 c-0.8,-1.7000000000000002 -1.5,-3.4 -1.8,-5.2 c-0.30000000000000004,-1.7000000000000002 -0.6000000000000001,-3.4 -0.6000000000000001,-5.1 c-0.1,-1.5 -0.1,-3 0.1,-4.6 c0.1,-1.4 0.2,-2.5 0.30000000000000004,-3.4 c0.1,-0.9 0.30000000000000004,-1.9 0.7000000000000001,-3 c0.30000000000000004,-1.1 0.7000000000000001,-2.3 1.1,-3.4 c0.5,-1.1 1,-2.1 1.7000000000000002,-3.1 c0.6000000000000001,-0.9 1.4,-1.7000000000000002 2.3,-2.3 c-0.30000000000000004,-2 -0.6000000000000001,-3.9 -1,-5.7 c-0.30000000000000004,-1.8 -0.6000000000000001,-3.6 -0.9,-5.6 l-1.1,-8 c-0.4,-2.6 -0.7000000000000001,-5.3 -1,-8 c-0.2,-1.9 -0.4,-3.7 -0.6000000000000001,-5.6 c-0.2,-1.9 -0.30000000000000004,-3.8 -0.30000000000000004,-5.6 l0,-0.5 c0,-0.30000000000000004 0,-0.6000000000000001 0,-0.9 c0,-0.30000000000000004 0,-0.5 0.1,-0.8 C112.20000076293945,0.1000007629394517 112.20000076293945,7.629394502828291e-7 112.40000076293944,7.629394502828291e-7 zM116.00000076293946,67.90000076293946 c0.30000000000000004,-1.8 0.6000000000000001,-3.7 0.9,-5.7 c0.30000000000000004,-2 0.6000000000000001,-4 0.8,-6.2 c0.2,-2.2 0.30000000000000004,-4.3 0.2,-6.5 c-0.1,-2.3 -0.4,-4.7 -0.9,-6.9 c-0.7000000000000001,0.6000000000000001 -1.2,1.4 -1.6,2.2 c-0.4,0.9 -0.8,1.9 -1,2.9 c-0.2,1 -0.4,2 -0.5,2.9 c-0.1,1 -0.2,1.8 -0.30000000000000004,2.5 c-0.1,0.8 0,1.7000000000000002 0,2.5 c0.1,1.1 0.2,2.4 0.4,3.9 c0.2,1.4 0.4,2.9 0.7000000000000001,4.4 C115.10000076293946,65.20000076293945 115.50000076293946,66.60000076293946 116.00000076293946,67.90000076293946 L116.00000076293946,67.90000076293946 z" id="svg_7" class=""/><path d="M128.20000076293945,30.300000762939455 c0.30000000000000004,0.30000000000000004 0.6000000000000001,0.6000000000000001 0.7000000000000001,1 c0.1,0.4 0.2,0.8 0.2,1.2 c0,0.4 0,0.9 -0.1,1.3 c0,0.4 0,0.9 0.1,1.3 c0.2,0.8 0.5,1.5 0.8,2.3 c0.30000000000000004,0.7000000000000001 0.7000000000000001,1.5 1,2.2 l1.2,2.2 c0.4,0.7000000000000001 0.8,1.4 1.2,2.1 c0.7000000000000001,1.3 1.2,2.7 1.5,4.1 c0.30000000000000004,1.4 0.2,2.9 -0.2,4.3 c-0.4,1.5 -1.3,2.8 -2.5,3.9 c-0.6000000000000001,0.4 -1.2,0.8 -1.9,0.9 c-0.1,0.1 -0.2,0.1 -0.4,0.1 l-0.7000000000000001,0.2 c-0.2,0.1 -0.4,0.1 -0.7000000000000001,0.1 c-0.2,0 -0.30000000000000004,0 -0.30000000000000004,-0.1 s0.1,-0.2 0.5,-0.4 c0.2,-0.1 0.5,-0.2 0.7000000000000001,-0.4 c0.5,-0.30000000000000004 1,-0.6000000000000001 1.4,-1.1 c0.7000000000000001,-0.8 1.2,-1.9 1.4,-3 c0.1,-1 0.1,-2 -0.1,-3 c-0.2,-1 -0.6000000000000001,-1.9 -1.2,-2.7 c-0.5,-0.8 -1.1,-1.5 -1.7000000000000002,-2.3 c-0.6000000000000001,-0.8 -1.2,-1.6 -1.8,-2.4 c-0.1,1.6 -0.30000000000000004,3.2 -0.6000000000000001,4.7 c-0.30000000000000004,1.8 -0.7000000000000001,3.5 -1.1,5.1 c-0.4,1.6 -0.8,3 -1.1,4.1 c-0.4,1.1 -0.6000000000000001,1.7000000000000002 -0.8,1.7000000000000002 s-0.1,-0.7000000000000001 0.1,-2.2 c0.2,-1.4 0.4,-3.1 0.7000000000000001,-5.2 s0.5,-4.2 0.6000000000000001,-6.5 c0.1,-2 0,-4.1 -0.30000000000000004,-6.1 c-0.1,-0.7000000000000001 -0.30000000000000004,-1.3 -0.4,-1.9 s-0.2,-1.3 -0.30000000000000004,-2 c0,-0.7000000000000001 0,-1.4 0.1,-2 c0.2,-0.6000000000000001 0.5,-1.2 0.9,-1.6 c0.4,-0.4 0.9,-0.6000000000000001 1.4,-0.6000000000000001 C127.20000076293945,29.700000762939453 127.80000076293945,29.900000762939452 128.20000076293945,30.300000762939455 z" id="svg_8" class=""/></g></svg>